<mxfile host="app.diagrams.net" modified="2022-10-05T12:49:39.012Z" agent="5.0 (Windows NT 10.0; Win64; x64) AppleWebKit/537.36 (KHTML, like Gecko) Chrome/106.0.0.0 Safari/537.36 Edg/106.0.1370.34" etag="ogasErxoKP63vtvMi5Bp" version="20.4.0" type="github">
  <diagram id="OH9rVAfJrmjZqT6OLwe9" name="StrÃ¡nka-1">
    <mxGraphModel dx="814" dy="1696" grid="1" gridSize="10" guides="1" tooltips="1" connect="1" arrows="1" fold="1" page="1" pageScale="1" pageWidth="827" pageHeight="1169" math="0" shadow="0">
      <root>
        <mxCell id="0" />
        <mxCell id="1" parent="0" />
        <mxCell id="_JvK_MdJNnI4TqJlT8X0-1" value="S_INIT" style="ellipse;whiteSpace=wrap;html=1;" parent="1" vertex="1">
          <mxGeometry x="350" y="240" width="120" height="80" as="geometry" />
        </mxCell>
        <mxCell id="_JvK_MdJNnI4TqJlT8X0-3" value="" style="rounded=0;whiteSpace=wrap;html=1;" parent="1" vertex="1">
          <mxGeometry x="120" y="320" width="120" height="60" as="geometry" />
        </mxCell>
        <mxCell id="_JvK_MdJNnI4TqJlT8X0-4" value="" style="rounded=1;whiteSpace=wrap;html=1;" parent="1" vertex="1">
          <mxGeometry x="60" y="210" width="120" height="60" as="geometry" />
        </mxCell>
        <mxCell id="_JvK_MdJNnI4TqJlT8X0-9" value="Identificators" style="shape=umlFrame;whiteSpace=wrap;html=1;fillColor=default;width=100;height=30;" parent="1" vertex="1">
          <mxGeometry x="480" y="120" width="640" height="480" as="geometry" />
        </mxCell>
        <mxCell id="_JvK_MdJNnI4TqJlT8X0-10" value="Char" style="endArrow=none;html=1;rounded=0;exitX=1;exitY=0.5;exitDx=0;exitDy=0;" parent="1" source="_JvK_MdJNnI4TqJlT8X0-1" edge="1">
          <mxGeometry width="50" height="50" relative="1" as="geometry">
            <mxPoint x="410" y="260" as="sourcePoint" />
            <mxPoint x="560" y="280" as="targetPoint" />
          </mxGeometry>
        </mxCell>
        <mxCell id="_JvK_MdJNnI4TqJlT8X0-11" value="Identificators" style="ellipse;whiteSpace=wrap;html=1;" parent="1" vertex="1">
          <mxGeometry x="560" y="240" width="120" height="80" as="geometry" />
        </mxCell>
        <mxCell id="_JvK_MdJNnI4TqJlT8X0-13" value="int" style="ellipse;whiteSpace=wrap;html=1;" parent="1" vertex="1">
          <mxGeometry x="800" y="120" width="120" height="80" as="geometry" />
        </mxCell>
        <mxCell id="_JvK_MdJNnI4TqJlT8X0-14" value="float" style="ellipse;whiteSpace=wrap;html=1;" parent="1" vertex="1">
          <mxGeometry x="800" y="240" width="120" height="80" as="geometry" />
        </mxCell>
        <mxCell id="_JvK_MdJNnI4TqJlT8X0-15" value="&lt;h1&gt;Symbols&lt;/h1&gt;&lt;p&gt;&lt;span style=&quot;background-color: initial;&quot;&gt;\c - character&lt;br&gt;\d - number&lt;br&gt;&lt;/span&gt;&lt;span style=&quot;background-color: initial;&quot;&gt;\s - whitespace&lt;br&gt;&lt;/span&gt;&lt;span style=&quot;background-color: transparent; color: var(--highlight-color); font-family: inherit; font-size: var(--fs-body1); font-weight: inherit; font-style: inherit; font-variant-ligatures: inherit; font-variant-caps: inherit;&quot;&gt;$ - &lt;/span&gt;&lt;span style=&quot;background-color: transparent; color: var(--highlight-keyword); font-family: inherit; font-weight: inherit; font-style: inherit; font-variant: inherit; margin: 0px; padding: 0px; border: 0px; font-stretch: inherit; line-height: inherit; font-size: 13px; vertical-align: baseline; box-sizing: inherit;&quot; class=&quot;hljs-keyword&quot;&gt;end&lt;/span&gt;&lt;span style=&quot;background-color: transparent; color: var(--highlight-color); font-family: inherit; font-size: var(--fs-body1); font-weight: inherit; font-style: inherit; font-variant-ligatures: inherit; font-variant-caps: inherit;&quot;&gt; &lt;/span&gt;&lt;span style=&quot;background-color: transparent; color: var(--highlight-keyword); font-family: inherit; font-weight: inherit; font-style: inherit; font-variant: inherit; margin: 0px; padding: 0px; border: 0px; font-stretch: inherit; line-height: inherit; font-size: 13px; vertical-align: baseline; box-sizing: inherit;&quot; class=&quot;hljs-keyword&quot;&gt;of&lt;/span&gt;&lt;span style=&quot;background-color: transparent; color: var(--highlight-color); font-family: inherit; font-size: var(--fs-body1); font-weight: inherit; font-style: inherit; font-variant-ligatures: inherit; font-variant-caps: inherit;&quot;&gt; the line&lt;/span&gt;&lt;/p&gt;" style="text;html=1;strokeColor=none;fillColor=none;spacing=5;spacingTop=-20;whiteSpace=wrap;overflow=hidden;rounded=0;" parent="1" vertex="1">
          <mxGeometry x="310" width="190" height="120" as="geometry" />
        </mxCell>
        <mxCell id="XQ2rFPyLk0n76tHmdAae-1" value="string" style="ellipse;whiteSpace=wrap;html=1;" vertex="1" parent="1">
          <mxGeometry x="800" y="360" width="120" height="80" as="geometry" />
        </mxCell>
        <mxCell id="XQ2rFPyLk0n76tHmdAae-2" value="S_INIT" style="ellipse;whiteSpace=wrap;html=1;" vertex="1" parent="1">
          <mxGeometry x="800" y="480" width="120" height="80" as="geometry" />
        </mxCell>
        <mxCell id="XQ2rFPyLk0n76tHmdAae-3" value="" style="endArrow=none;html=1;rounded=0;exitX=1;exitY=0.5;exitDx=0;exitDy=0;entryX=0;entryY=0.5;entryDx=0;entryDy=0;" edge="1" parent="1" target="_JvK_MdJNnI4TqJlT8X0-14">
          <mxGeometry width="50" height="50" relative="1" as="geometry">
            <mxPoint x="680" y="279.76" as="sourcePoint" />
            <mxPoint x="770" y="279.76" as="targetPoint" />
          </mxGeometry>
        </mxCell>
        <mxCell id="XQ2rFPyLk0n76tHmdAae-4" value="" style="endArrow=none;html=1;rounded=0;exitX=1;exitY=0.5;exitDx=0;exitDy=0;entryX=0;entryY=0.5;entryDx=0;entryDy=0;" edge="1" parent="1" source="_JvK_MdJNnI4TqJlT8X0-11" target="_JvK_MdJNnI4TqJlT8X0-13">
          <mxGeometry width="50" height="50" relative="1" as="geometry">
            <mxPoint x="680" y="159.76" as="sourcePoint" />
            <mxPoint x="770" y="159.76" as="targetPoint" />
          </mxGeometry>
        </mxCell>
        <mxCell id="XQ2rFPyLk0n76tHmdAae-5" value="" style="endArrow=none;html=1;rounded=0;entryX=-0.013;entryY=0.558;entryDx=0;entryDy=0;entryPerimeter=0;" edge="1" parent="1" target="XQ2rFPyLk0n76tHmdAae-1">
          <mxGeometry width="50" height="50" relative="1" as="geometry">
            <mxPoint x="680" y="280" as="sourcePoint" />
            <mxPoint x="780" y="289.76" as="targetPoint" />
          </mxGeometry>
        </mxCell>
        <mxCell id="XQ2rFPyLk0n76tHmdAae-6" value="" style="endArrow=none;html=1;rounded=0;exitX=1;exitY=0.5;exitDx=0;exitDy=0;entryX=0;entryY=0.5;entryDx=0;entryDy=0;" edge="1" parent="1" source="_JvK_MdJNnI4TqJlT8X0-11" target="XQ2rFPyLk0n76tHmdAae-2">
          <mxGeometry width="50" height="50" relative="1" as="geometry">
            <mxPoint x="689.9999999999973" y="290" as="sourcePoint" />
            <mxPoint x="809.9999999999998" y="170" as="targetPoint" />
          </mxGeometry>
        </mxCell>
      </root>
    </mxGraphModel>
  </diagram>
</mxfile>
